# xmcd CD database file
#
# Track frame offsets:
#	150
#	3055
#	44156
#	67506
#	82611
#	104011
#	114582
#	131470
#	164117
#	197547
#	232769
#	275951
#
# Disc length: 4320 seconds
#
# Revision: 0
# Processed by: cddbd v1.5.1PL0 Copyright (c) Steve Scherf et al.
# Submitted via: CDex 1.51
#
DISCID=9810de0c
DTITLE=David Grisman and Martin Taylor Quartet - Live at the King Kat Theater [CD2]
DYEAR=1999
DGENRE=Jazz
TTITLE0=David Intros Martin
TTITLE1=Some Enchanted Evening (Taylor Solo)
TTITLE2=I've Got Rhythm (Taylor Solo)
TTITLE3=Please
TTITLE4=Taylor Duet
TTITLE5=The Trade off
TTITLE6=In Your Head Jam
TTITLE7=Nuages
TTITLE8=Swing 42
TTITLE9=Dawgmatism
TTITLE10=Mugavera
TTITLE11=So What
EXTD=YEAR: 1999
EXTT0=
EXTT1=
EXTT2=
EXTT3=
EXTT4=
EXTT5=
EXTT6=
EXTT7=
EXTT8=
EXTT9=
EXTT10=
EXTT11=
PLAYORDER=
